<svg width="1200" height="675" viewBox="0 0 1200 675" fill="none" xmlns="http://www.w3.org/2000/svg">
  <rect width="1200" height="675" rx="40" fill="#0F172A"/>
  <rect x="48" y="48" width="1104" height="579" rx="28" fill="#10233A"/>
  <path d="M72 360C192 282 322 286 438 336C540 380 654 380 764 330C872 280 1012 278 1128 350V628H72V360Z" fill="#1D4ED8" fill-opacity="0.35"/>
  <path d="M72 404C192 326 322 330 438 380C540 424 654 424 764 374C872 324 1012 322 1128 394V628H72V404Z" fill="#38BDF8" fill-opacity="0.38"/>
  <rect x="120" y="106" width="330" height="38" rx="19" fill="#1E293B"/>
  <rect x="120" y="164" width="210" height="14" rx="7" fill="#C4B5FD" fill-opacity="0.8"/>
  <rect x="120" y="192" width="250" height="14" rx="7" fill="#94A3B8" fill-opacity="0.4"/>
  <rect x="170" y="272" width="860" height="200" rx="28" fill="#0B1220"/>
  <rect x="210" y="312" width="260" height="22" rx="11" fill="#38BDF8"/>
  <rect x="210" y="352" width="330" height="14" rx="7" fill="#94A3B8" fill-opacity="0.55"/>
  <rect x="210" y="382" width="280" height="14" rx="7" fill="#94A3B8" fill-opacity="0.35"/>
</svg>
