<svg width="1200" height="675" viewBox="0 0 1200 675" fill="none" xmlns="http://www.w3.org/2000/svg">
  <defs>
    <linearGradient id="bg" x1="0" y1="0" x2="1200" y2="675" gradientUnits="userSpaceOnUse">
      <stop stop-color="#122033" />
      <stop offset="0.48" stop-color="#1B2740" />
      <stop offset="1" stop-color="#2A2136" />
    </linearGradient>
    <linearGradient id="panel" x1="80" y1="78" x2="1120" y2="620" gradientUnits="userSpaceOnUse">
      <stop stop-color="#263246" />
      <stop offset="1" stop-color="#151C2A" />
    </linearGradient>
    <linearGradient id="bar" x1="74" y1="78" x2="1126" y2="120" gradientUnits="userSpaceOnUse">
      <stop stop-color="#2D3A4F" />
      <stop offset="1" stop-color="#1D2433" />
    </linearGradient>
    <filter id="glow" x="-20%" y="-20%" width="140%" height="140%">
      <feGaussianBlur stdDeviation="12" />
    </filter>
  </defs>

  <rect width="1200" height="675" rx="40" fill="url(#bg)" />
  <circle cx="1050" cy="70" r="120" fill="#F5A6C6" fill-opacity="0.18" filter="url(#glow)" />
  <circle cx="170" cy="620" r="180" fill="#7EA0FF" fill-opacity="0.12" filter="url(#glow)" />

  <rect x="40" y="40" width="1120" height="595" rx="28" fill="url(#panel)" />
  <rect x="74" y="78" width="1052" height="42" rx="18" fill="url(#bar)" />
  <circle cx="120" cy="99" r="10" fill="#F4A261" />
  <circle cx="156" cy="99" r="10" fill="#E76F51" />
  <circle cx="192" cy="99" r="10" fill="#2A9D8F" />

  <rect x="72" y="150" width="515" height="385" rx="24" fill="#233043" />
  <rect x="632" y="150" width="470" height="185" rx="24" fill="#10192A" />
  <rect x="632" y="350" width="470" height="185" rx="24" fill="#10192A" />

  <rect x="96" y="174" width="430" height="8" rx="4" fill="#B8C4D6" fill-opacity="0.72" />
  <rect x="96" y="198" width="320" height="8" rx="4" fill="#B8C4D6" fill-opacity="0.36" />
  <rect x="96" y="222" width="360" height="8" rx="4" fill="#B8C4D6" fill-opacity="0.28" />
  <rect x="96" y="246" width="180" height="8" rx="4" fill="#B8C4D6" fill-opacity="0.28" />
  <rect x="96" y="270" width="395" height="8" rx="4" fill="#B8C4D6" fill-opacity="0.18" />
  <rect x="96" y="294" width="220" height="8" rx="4" fill="#B8C4D6" fill-opacity="0.18" />
  <rect x="96" y="318" width="300" height="8" rx="4" fill="#B8C4D6" fill-opacity="0.18" />
  <rect x="96" y="342" width="165" height="8" rx="4" fill="#B8C4D6" fill-opacity="0.18" />
  <rect x="96" y="366" width="360" height="8" rx="4" fill="#B8C4D6" fill-opacity="0.18" />
  <rect x="96" y="390" width="240" height="8" rx="4" fill="#B8C4D6" fill-opacity="0.18" />
  <rect x="96" y="414" width="380" height="8" rx="4" fill="#B8C4D6" fill-opacity="0.18" />
  <rect x="96" y="438" width="200" height="8" rx="4" fill="#B8C4D6" fill-opacity="0.18" />
  <rect x="96" y="462" width="280" height="8" rx="4" fill="#B8C4D6" fill-opacity="0.18" />

  <text x="122" y="224" fill="#7EA0FF" font-family="monospace" font-size="18"># AUTOGENERATED HYPR CONFIG</text>
  <text x="122" y="250" fill="#94A3B8" font-family="monospace" font-size="14">monitor = eDP-1, 1920x1080@60, 0x0, 1</text>
  <text x="122" y="274" fill="#94A3B8" font-family="monospace" font-size="14">monitor = HDMI-A-1, 2560x1440@144, 0x0, 1</text>
  <text x="122" y="318" fill="#7EA0FF" font-family="monospace" font-size="14">$terminal = kitty</text>
  <text x="122" y="342" fill="#94A3B8" font-family="monospace" font-size="14">$fileManager = dolphin</text>
  <text x="122" y="366" fill="#94A3B8" font-family="monospace" font-size="14">$menu = rofi -show drun</text>
  <text x="122" y="418" fill="#7EA0FF" font-family="monospace" font-size="14">exec-once = hyprpaper &amp; firefox &amp; waybar</text>
  <text x="122" y="462" fill="#94A3B8" font-family="monospace" font-size="14">env = LIBVA_DRIVER_NAME,nvidia</text>

  <text x="656" y="190" fill="#D8B4D8" font-family="monospace" font-size="17">niko@archlinux</text>
  <text x="656" y="216" fill="#B8C4D6" font-family="monospace" font-size="13">OS: Arch Linux x86_64</text>
  <text x="656" y="238" fill="#B8C4D6" font-family="monospace" font-size="13">Host: Ciara 645-G3</text>
  <text x="656" y="260" fill="#B8C4D6" font-family="monospace" font-size="13">Kernel: Linux 6.13.8-arch1-1</text>
  <text x="656" y="282" fill="#B8C4D6" font-family="monospace" font-size="13">WM: Hyprland v0.48.1</text>
  <text x="656" y="304" fill="#B8C4D6" font-family="monospace" font-size="13">Terminal: kitty</text>
  <rect x="656" y="326" width="148" height="12" rx="6" fill="#7EA0FF" fill-opacity="0.72" />

  <text x="656" y="392" fill="#D8B4D8" font-family="monospace" font-size="16">Reshiram</text>
  <rect x="662" y="420" width="58" height="58" rx="10" fill="#E5E7EB" fill-opacity="0.9" />
  <rect x="726" y="420" width="138" height="58" rx="10" fill="#E5E7EB" fill-opacity="0.58" />
  <rect x="868" y="420" width="94" height="58" rx="10" fill="#E5E7EB" fill-opacity="0.35" />
  <rect x="966" y="420" width="44" height="58" rx="10" fill="#E5E7EB" fill-opacity="0.22" />

  <circle cx="760" cy="446" r="12" fill="#C7D2FE" />
  <circle cx="792" cy="446" r="12" fill="#C7D2FE" />
  <circle cx="824" cy="446" r="12" fill="#C7D2FE" />
  <circle cx="856" cy="446" r="12" fill="#C7D2FE" />
  <circle cx="888" cy="446" r="12" fill="#C7D2FE" />

  <rect x="635" y="560" width="12" height="12" rx="4" fill="#7EA0FF" />
  <rect x="651" y="560" width="12" height="12" rx="4" fill="#7EA0FF" fill-opacity="0.8" />
  <rect x="667" y="560" width="12" height="12" rx="4" fill="#7EA0FF" fill-opacity="0.6" />
  <rect x="683" y="560" width="12" height="12" rx="4" fill="#7EA0FF" fill-opacity="0.4" />
  <rect x="699" y="560" width="12" height="12" rx="4" fill="#7EA0FF" fill-opacity="0.3" />
  <rect x="715" y="560" width="12" height="12" rx="4" fill="#7EA0FF" fill-opacity="0.2" />

  <path d="M810 122C870 88 942 88 1002 122" stroke="#F5A6C6" stroke-width="3" stroke-linecap="round" opacity="0.6" />
  <path d="M232 602C340 640 468 640 580 602" stroke="#7EA0FF" stroke-width="4" stroke-linecap="round" opacity="0.2" />
</svg>
