<svg width="1200" height="675" viewBox="0 0 1200 675" fill="none" xmlns="http://www.w3.org/2000/svg">
  <rect width="1200" height="675" rx="40" fill="#111827"/>
  <rect x="48" y="48" width="1104" height="579" rx="28" fill="#171F2B"/>
  <rect x="100" y="112" width="1000" height="420" rx="28" fill="#0B1220"/>
  <path d="M140 330C240 250 330 252 410 314C486 372 570 376 650 314C742 242 832 236 940 314C999 357 1050 360 1090 348" stroke="#60A5FA" stroke-width="14" stroke-linecap="round"/>
  <path d="M140 370C240 290 330 292 410 354C486 412 570 416 650 354C742 282 832 276 940 354C999 397 1050 400 1090 388" stroke="#F472B6" stroke-width="14" stroke-linecap="round"/>
  <rect x="160" y="170" width="250" height="24" rx="12" fill="#93C5FD"/>
  <rect x="160" y="214" width="170" height="14" rx="7" fill="#94A3B8" fill-opacity="0.6"/>
  <rect x="160" y="242" width="300" height="14" rx="7" fill="#94A3B8" fill-opacity="0.35"/>
  <rect x="700" y="170" width="220" height="24" rx="12" fill="#F9A8D4"/>
  <rect x="700" y="214" width="170" height="14" rx="7" fill="#94A3B8" fill-opacity="0.6"/>
  <rect x="700" y="242" width="260" height="14" rx="7" fill="#94A3B8" fill-opacity="0.35"/>
</svg>
