<svg width="1200" height="675" viewBox="0 0 1200 675" fill="none" xmlns="http://www.w3.org/2000/svg">
  <rect width="1200" height="675" rx="40" fill="#0A1A0A"/>
  <rect x="48" y="48" width="1104" height="579" rx="28" fill="#0F1F0F"/>
  <!-- Minecraft grass/dirt blocks background pattern -->
  <rect x="800" y="80" width="60" height="60" rx="6" fill="#4CAF50" fill-opacity="0.25"/>
  <rect x="870" y="80" width="60" height="60" rx="6" fill="#4CAF50" fill-opacity="0.18"/>
  <rect x="940" y="80" width="60" height="60" rx="6" fill="#4CAF50" fill-opacity="0.12"/>
  <rect x="800" y="150" width="60" height="60" rx="6" fill="#795548" fill-opacity="0.2"/>
  <rect x="870" y="150" width="60" height="60" rx="6" fill="#4CAF50" fill-opacity="0.15"/>
  <rect x="940" y="150" width="60" height="60" rx="6" fill="#795548" fill-opacity="0.15"/>
  <rect x="1010" y="80" width="60" height="60" rx="6" fill="#4CAF50" fill-opacity="0.1"/>
  <rect x="1010" y="150" width="60" height="60" rx="6" fill="#4CAF50" fill-opacity="0.08"/>
  <!-- Glow circles -->
  <circle cx="920" cy="180" r="160" fill="#4CAF50" fill-opacity="0.08"/>
  <circle cx="860" cy="200" r="100" fill="#00BCD4" fill-opacity="0.08"/>
  <!-- Title area -->
  <rect x="122" y="126" width="480" height="40" rx="20" fill="#1A2E1A"/>
  <rect x="122" y="184" width="340" height="16" rx="8" fill="#4CAF50" fill-opacity="0.45"/>
  <rect x="122" y="216" width="420" height="16" rx="8" fill="#94A3B8" fill-opacity="0.3"/>
  <!-- Arduino board representation -->
  <rect x="122" y="286" width="420" height="280" rx="16" fill="#0B1E0B"/>
  <rect x="138" y="302" width="390" height="248" rx="12" fill="#0D2E1A" stroke="#2E7D32" stroke-width="2"/>
  <!-- Arduino chip -->
  <rect x="240" y="360" width="180" height="110" rx="8" fill="#1B5E20" stroke="#4CAF50" stroke-width="1.5"/>
  <rect x="258" y="378" width="144" height="74" rx="4" fill="#2E7D32"/>
  <!-- Chip pins left -->
  <rect x="210" y="375" width="28" height="8" rx="4" fill="#9E9E9E"/>
  <rect x="210" y="395" width="28" height="8" rx="4" fill="#9E9E9E"/>
  <rect x="210" y="415" width="28" height="8" rx="4" fill="#9E9E9E"/>
  <rect x="210" y="435" width="28" height="8" rx="4" fill="#9E9E9E"/>
  <!-- Chip pins right -->
  <rect x="420" y="375" width="28" height="8" rx="4" fill="#9E9E9E"/>
  <rect x="420" y="395" width="28" height="8" rx="4" fill="#9E9E9E"/>
  <rect x="420" y="415" width="28" height="8" rx="4" fill="#9E9E9E"/>
  <rect x="420" y="435" width="28" height="8" rx="4" fill="#9E9E9E"/>
  <!-- Circuit traces -->
  <path d="M510 380 L560 380 L560 420 L610 420" stroke="#00E676" stroke-width="3" stroke-linecap="round" opacity="0.6"/>
  <path d="M510 420 L545 420 L545 460 L610 460" stroke="#00E676" stroke-width="3" stroke-linecap="round" opacity="0.4"/>
  <!-- Minecraft pixel blocks on right -->
  <rect x="600" y="286" width="470" height="280" rx="16" fill="#0B1A0B"/>
  <!-- Blocky character silhouette -->
  <rect x="700" y="340" width="70" height="70" rx="4" fill="#8BC34A" fill-opacity="0.5"/>
  <rect x="710" y="316" width="50" height="50" rx="4" fill="#FFCC80" fill-opacity="0.5"/>
  <rect x="700" y="410" width="30" height="80" rx="4" fill="#5C6BC0" fill-opacity="0.5"/>
  <rect x="740" y="410" width="30" height="80" rx="4" fill="#5C6BC0" fill-opacity="0.5"/>
  <!-- Connection line between boards -->
  <path d="M543 426 Q572 426 572 450 Q572 474 600 474" stroke="#4CAF50" stroke-width="2" stroke-dasharray="6 4" opacity="0.5"/>
  <!-- Signal dots -->
  <circle cx="180" cy="316" r="8" fill="#00E676" fill-opacity="0.8"/>
  <circle cx="180" cy="316" r="14" fill="#00E676" fill-opacity="0.15"/>
  <!-- Labels -->
  <rect x="620" y="530" width="120" height="18" rx="9" fill="#4CAF50" fill-opacity="0.7"/>
  <rect x="750" y="530" width="90" height="18" rx="9" fill="#94A3B8" fill-opacity="0.4"/>
</svg>
